<?xml version="1.0" encoding="UTF-8"?>
<svg xmlns="http://www.w3.org/2000/svg" xmlns:xlink="http://www.w3.org/1999/xlink" width="128px" height="128px" viewBox="0 0 128 128" version="1.1">
<defs>
<clipPath id="clip1">
  <path d="M 0 0 L 127.945312 0 L 127.945312 127.945312 L 0 127.945312 Z M 0 0 "/>
</clipPath>
<clipPath id="clip2">
  <path d="M 24.199219 69.125 L 103.746094 69.125 L 103.746094 85.792969 L 24.199219 85.792969 Z M 24.199219 69.125 "/>
</clipPath>
<clipPath id="clip3">
  <path d="M 52.117188 42.152344 L 75.828125 42.152344 L 75.828125 65.1875 L 52.117188 65.1875 Z M 52.117188 42.152344 "/>
</clipPath>
</defs>
<g id="surface1">
<g clip-path="url(#clip1)" clip-rule="nonzero">
<path style="fill-rule:nonzero;fill:rgb(1.176471%,1.176471%,1.176471%);fill-opacity:1;stroke-width:1;stroke-linecap:butt;stroke-linejoin:miter;stroke:rgb(100%,100%,100%);stroke-opacity:1;stroke-miterlimit:4;" d="M 0.000000000000009325 171.426727 C 0.000000000000009325 76.747925 76.747925 0.000000000000011751 171.426727 0.000000000000011751 C 266.10553 0.000000000000011751 342.853455 76.747925 342.853455 171.426727 C 342.853455 266.10553 266.10553 342.853455 171.426727 342.853455 C 76.747925 342.853455 0.000000000000009325 266.10553 0.000000000000009325 171.426727 Z M 171.426727 338.823456 C 263.875946 338.823456 338.823456 263.875946 338.823456 171.426727 C 338.823456 78.977509 263.875946 4.029999 171.426727 4.029999 C 78.977509 4.029999 4.029999 78.977509 4.029999 171.426727 C 4.029999 263.875946 78.977509 338.823456 171.426727 338.823456 Z M 171.426727 338.823456 " transform="matrix(0.373178,0,0,0.373178,-0.00000000000000348,-0.000000000000004385)"/>
</g>
<path style=" stroke:none;fill-rule:nonzero;fill:rgb(1.176471%,1.176471%,1.176471%);fill-opacity:1;" d="M 125.386719 63.972656 C 125.386719 30.054688 97.890625 2.558594 63.972656 2.558594 C 30.054688 2.558594 2.558594 30.054688 2.558594 63.972656 C 2.558594 97.890625 30.054688 125.386719 63.972656 125.386719 C 97.890625 125.386719 125.386719 97.890625 125.386719 63.972656 Z M 125.386719 63.972656 "/>
<g clip-path="url(#clip2)" clip-rule="nonzero">
<path style=" stroke:none;fill-rule:nonzero;fill:rgb(97.647059%,97.647059%,97.647059%);fill-opacity:1;" d="M 28.894531 77.011719 L 25.515625 77.011719 L 25.515625 75.652344 L 28.894531 75.652344 C 29.550781 75.652344 30.082031 75.542969 30.484375 75.332031 C 30.886719 75.121094 31.183594 74.828125 31.375 74.457031 C 31.5625 74.085938 31.65625 73.660156 31.65625 73.183594 C 31.65625 72.75 31.5625 72.339844 31.375 71.957031 C 31.183594 71.574219 30.886719 71.261719 30.484375 71.027344 C 30.082031 70.789062 29.550781 70.667969 28.894531 70.667969 L 25.898438 70.667969 L 25.898438 81.984375 L 24.207031 81.984375 L 24.207031 69.296875 L 28.894531 69.296875 C 29.851562 69.296875 30.664062 69.464844 31.324219 69.792969 C 31.988281 70.128906 32.492188 70.585938 32.835938 71.164062 C 33.175781 71.746094 33.347656 72.414062 33.347656 73.167969 C 33.347656 73.980469 33.175781 74.675781 32.835938 75.25 C 32.492188 75.824219 31.988281 76.261719 31.324219 76.5625 C 30.664062 76.859375 29.851562 77.011719 28.894531 77.011719 Z M 36.847656 74.039062 L 36.847656 81.984375 L 35.21875 81.984375 L 35.21875 72.558594 L 36.804688 72.558594 Z M 39.785156 72.507812 L 39.785156 73.996094 C 39.644531 73.964844 39.515625 73.945312 39.398438 73.9375 C 39.277344 73.929688 39.140625 73.925781 38.988281 73.925781 C 38.496094 73.925781 38.082031 74.027344 37.742188 74.230469 C 37.402344 74.433594 37.136719 74.714844 36.953125 75.074219 C 36.765625 75.429688 36.648438 75.835938 36.601562 76.296875 L 36.140625 76.558594 C 36.140625 75.796875 36.246094 75.101562 36.449219 74.46875 C 36.652344 73.839844 36.96875 73.332031 37.402344 72.953125 C 37.835938 72.574219 38.390625 72.386719 39.070312 72.386719 C 39.179688 72.386719 39.3125 72.398438 39.464844 72.425781 C 39.621094 72.449219 39.726562 72.476562 39.785156 72.507812 Z M 43.035156 72.558594 L 43.035156 81.984375 L 41.402344 81.984375 L 41.402344 72.558594 Z M 41.28125 70.046875 C 41.28125 69.792969 41.359375 69.574219 41.519531 69.394531 C 41.683594 69.214844 41.917969 69.125 42.230469 69.125 C 42.542969 69.125 42.785156 69.214844 42.953125 69.394531 C 43.117188 69.574219 43.199219 69.792969 43.199219 70.046875 C 43.199219 70.296875 43.117188 70.511719 42.953125 70.691406 C 42.785156 70.867188 42.542969 70.953125 42.230469 70.953125 C 41.917969 70.953125 41.683594 70.867188 41.519531 70.691406 C 41.359375 70.511719 41.28125 70.296875 41.28125 70.046875 Z M 47.222656 74.429688 L 47.222656 81.984375 L 45.59375 81.984375 L 45.59375 72.558594 L 47.136719 72.558594 Z M 46.890625 76.90625 L 46.132812 76.878906 C 46.140625 76.019531 46.285156 75.253906 46.574219 74.578125 C 46.863281 73.898438 47.289062 73.363281 47.855469 72.96875 C 48.421875 72.582031 49.125 72.386719 49.96875 72.386719 C 50.851562 72.386719 51.578125 72.644531 52.15625 73.160156 C 52.730469 73.675781 53.019531 74.523438 53.019531 75.703125 L 53.019531 81.984375 L 51.386719 81.984375 L 51.386719 75.78125 C 51.386719 75.289062 51.304688 74.890625 51.136719 74.589844 C 50.972656 74.292969 50.742188 74.074219 50.4375 73.9375 C 50.136719 73.800781 49.78125 73.734375 49.375 73.734375 C 48.902344 73.734375 48.511719 73.820312 48.195312 73.988281 C 47.878906 74.15625 47.625 74.386719 47.433594 74.683594 C 47.242188 74.980469 47.101562 75.320312 47.019531 75.699219 C 46.933594 76.078125 46.890625 76.480469 46.890625 76.90625 Z M 53 76.019531 L 51.914062 76.347656 C 51.917969 75.660156 52.0625 75.015625 52.351562 74.414062 C 52.640625 73.808594 53.0625 73.320312 53.617188 72.945312 C 54.175781 72.570312 54.855469 72.386719 55.65625 72.386719 C 56.332031 72.386719 56.902344 72.503906 57.371094 72.742188 C 57.84375 72.980469 58.203125 73.347656 58.445312 73.847656 C 58.6875 74.347656 58.808594 74.996094 58.808594 75.789062 L 58.808594 81.984375 L 57.183594 81.984375 L 57.183594 75.773438 C 57.183594 75.242188 57.101562 74.832031 56.933594 74.539062 C 56.765625 74.238281 56.535156 74.03125 56.238281 73.914062 C 55.9375 73.792969 55.585938 73.734375 55.175781 73.734375 C 54.824219 73.734375 54.511719 73.796875 54.242188 73.917969 C 53.972656 74.039062 53.742188 74.207031 53.5625 74.417969 C 53.378906 74.632812 53.238281 74.871094 53.144531 75.144531 C 53.046875 75.417969 53 75.707031 53 76.019531 Z M 60.824219 77.375 L 60.824219 77.175781 C 60.824219 76.261719 60.996094 75.445312 61.34375 74.726562 C 61.695312 74.007812 62.1875 73.4375 62.824219 73.015625 C 63.464844 72.597656 64.222656 72.386719 65.101562 72.386719 C 65.988281 72.386719 66.753906 72.597656 67.398438 73.015625 C 68.042969 73.4375 68.539062 74.007812 68.882812 74.726562 C 69.230469 75.445312 69.40625 76.261719 69.40625 77.175781 L 69.40625 77.375 C 69.40625 78.28125 69.230469 79.09375 68.882812 79.820312 C 68.539062 80.542969 68.046875 81.113281 67.402344 81.53125 C 66.761719 81.949219 66 82.160156 65.117188 82.160156 C 64.234375 82.160156 63.472656 81.949219 62.832031 81.53125 C 62.191406 81.113281 61.695312 80.542969 61.34375 79.820312 C 60.996094 79.09375 60.824219 78.28125 60.824219 77.375 Z M 62.449219 77.175781 L 62.449219 77.375 C 62.449219 77.996094 62.550781 78.574219 62.746094 79.101562 C 62.945312 79.628906 63.238281 80.054688 63.632812 80.371094 C 64.023438 80.691406 64.519531 80.855469 65.117188 80.855469 C 65.707031 80.855469 66.199219 80.691406 66.59375 80.371094 C 66.984375 80.054688 67.28125 79.628906 67.476562 79.101562 C 67.675781 78.574219 67.773438 77.996094 67.773438 77.375 L 67.773438 77.175781 C 67.773438 76.554688 67.675781 75.980469 67.476562 75.449219 C 67.28125 74.921875 66.984375 74.496094 66.589844 74.171875 C 66.195312 73.851562 65.699219 73.691406 65.101562 73.691406 C 64.515625 73.691406 64.023438 73.851562 63.628906 74.171875 C 63.234375 74.496094 62.9375 74.921875 62.742188 75.449219 C 62.546875 75.980469 62.449219 76.554688 62.449219 77.175781 Z M 80.789062 77.011719 L 77.410156 77.011719 L 77.410156 75.652344 L 80.789062 75.652344 C 81.445312 75.652344 81.976562 75.542969 82.382812 75.332031 C 82.78125 75.121094 83.078125 74.828125 83.269531 74.457031 C 83.457031 74.085938 83.550781 73.660156 83.550781 73.183594 C 83.550781 72.75 83.457031 72.339844 83.269531 71.957031 C 83.078125 71.574219 82.78125 71.261719 82.382812 71.027344 C 81.976562 70.789062 81.445312 70.667969 80.789062 70.667969 L 77.792969 70.667969 L 77.792969 81.984375 L 76.105469 81.984375 L 76.105469 69.296875 L 80.789062 69.296875 C 81.75 69.296875 82.558594 69.464844 83.21875 69.792969 C 83.882812 70.128906 84.386719 70.585938 84.730469 71.164062 C 85.070312 71.746094 85.242188 72.414062 85.242188 73.167969 C 85.242188 73.980469 85.070312 74.675781 84.730469 75.25 C 84.386719 75.824219 83.882812 76.261719 83.21875 76.5625 C 82.558594 76.859375 81.75 77.011719 80.789062 77.011719 Z M 92.578125 80.371094 L 92.578125 75.519531 C 92.578125 74.957031 92.410156 74.507812 92.078125 74.171875 C 91.742188 73.839844 91.25 73.671875 90.597656 73.671875 C 90.199219 73.671875 89.84375 73.742188 89.539062 73.878906 C 89.234375 74.019531 89 74.203125 88.828125 74.429688 C 88.660156 74.660156 88.574219 74.90625 88.574219 75.171875 L 86.949219 75.171875 C 86.949219 74.71875 87.101562 74.277344 87.410156 73.851562 C 87.71875 73.425781 88.152344 73.074219 88.710938 72.800781 C 89.273438 72.523438 89.933594 72.386719 90.695312 72.386719 C 91.382812 72.386719 91.988281 72.5 92.515625 72.730469 C 93.042969 72.964844 93.457031 73.3125 93.757812 73.78125 C 94.058594 74.25 94.207031 74.835938 94.207031 75.535156 L 94.207031 79.929688 C 94.207031 80.242188 94.234375 80.578125 94.289062 80.933594 C 94.34375 81.285156 94.425781 81.589844 94.535156 81.847656 L 94.535156 81.984375 L 92.835938 81.984375 C 92.757812 81.800781 92.691406 81.550781 92.648438 81.238281 C 92.601562 80.929688 92.578125 80.640625 92.578125 80.371094 Z M 92.855469 76.269531 L 92.871094 77.402344 L 91.253906 77.402344 C 90.335938 77.402344 89.625 77.546875 89.125 77.839844 C 88.625 78.128906 88.375 78.5625 88.375 79.144531 C 88.375 79.597656 88.527344 79.980469 88.832031 80.292969 C 89.140625 80.609375 89.585938 80.765625 90.171875 80.765625 C 90.667969 80.765625 91.101562 80.660156 91.476562 80.449219 C 91.855469 80.242188 92.15625 79.984375 92.375 79.675781 C 92.597656 79.371094 92.71875 79.074219 92.734375 78.789062 L 93.429688 79.5625 C 93.390625 79.808594 93.277344 80.078125 93.097656 80.371094 C 92.917969 80.667969 92.679688 80.953125 92.378906 81.222656 C 92.082031 81.492188 91.726562 81.714844 91.316406 81.890625 C 90.90625 82.070312 90.449219 82.160156 89.9375 82.160156 C 89.296875 82.160156 88.738281 82.035156 88.257812 81.789062 C 87.78125 81.542969 87.410156 81.207031 87.144531 80.78125 C 86.882812 80.359375 86.75 79.890625 86.75 79.371094 C 86.75 78.355469 87.132812 77.582031 87.898438 77.058594 C 88.664062 76.53125 89.695312 76.269531 90.992188 76.269531 Z M 99.378906 81.011719 L 102 72.558594 L 103.734375 72.558594 L 99.957031 83.441406 C 99.867188 83.671875 99.753906 83.921875 99.609375 84.195312 C 99.46875 84.460938 99.289062 84.71875 99.070312 84.964844 C 98.851562 85.210938 98.585938 85.410156 98.273438 85.5625 C 97.960938 85.714844 97.589844 85.792969 97.160156 85.792969 C 97.070312 85.792969 96.964844 85.785156 96.84375 85.769531 C 96.722656 85.75 96.605469 85.730469 96.496094 85.710938 C 96.386719 85.6875 96.300781 85.671875 96.246094 85.652344 L 96.246094 84.355469 C 96.289062 84.363281 96.363281 84.371094 96.464844 84.378906 C 96.570312 84.390625 96.640625 84.398438 96.679688 84.398438 C 97.226562 84.398438 97.652344 84.285156 97.960938 84.058594 C 98.269531 83.832031 98.519531 83.429688 98.710938 82.847656 Z M 97.480469 72.558594 L 99.910156 79.886719 L 100.332031 81.585938 L 99.160156 82.167969 L 95.703125 72.558594 Z M 97.480469 72.558594 "/>
</g>
<g clip-path="url(#clip3)" clip-rule="nonzero">
<path style=" stroke:none;fill-rule:nonzero;fill:rgb(97.647059%,97.647059%,97.647059%);fill-opacity:1;" d="M 75.761719 58.640625 C 75.511719 57.660156 74.648438 57.003906 73.613281 57.003906 C 73.375 57.003906 73.128906 57.039062 72.867188 57.109375 L 68.59375 58.421875 C 68.605469 58.355469 68.613281 58.292969 68.617188 58.226562 C 68.714844 57.113281 68.074219 56.179688 66.9375 55.832031 L 62.863281 54.828125 C 62.644531 54.78125 62.414062 54.757812 62.183594 54.757812 C 61.574219 54.757812 61.019531 54.921875 60.484375 55.082031 C 59.960938 55.238281 59.464844 55.386719 58.921875 55.386719 C 58.65625 55.386719 58.28125 55.390625 57.949219 55.390625 L 57.949219 54.632812 C 57.949219 54.234375 57.625 53.90625 57.222656 53.90625 L 52.84375 53.90625 C 52.441406 53.90625 52.117188 54.234375 52.117188 54.632812 L 52.117188 64.460938 C 52.117188 64.863281 52.441406 65.1875 52.84375 65.1875 L 57.222656 65.1875 C 57.625 65.1875 57.949219 64.863281 57.949219 64.460938 L 57.949219 63.5 L 60.210938 63.5 C 60.523438 63.5 61.082031 63.589844 61.386719 63.691406 L 65.140625 64.921875 C 65.347656 64.992188 65.582031 65.027344 65.835938 65.027344 C 66.265625 65.027344 66.691406 64.929688 67.007812 64.753906 L 74.539062 61.191406 C 75.539062 60.648438 76.015625 59.644531 75.761719 58.640625 Z M 56.496094 63.734375 L 53.570312 63.734375 L 53.570312 55.359375 L 56.496094 55.359375 Z M 73.882812 59.898438 L 66.367188 63.453125 C 66.351562 63.460938 66.335938 63.46875 66.320312 63.476562 C 66.238281 63.523438 66.050781 63.574219 65.835938 63.574219 C 65.699219 63.574219 65.621094 63.550781 65.59375 63.542969 L 61.84375 62.3125 C 61.390625 62.160156 60.6875 62.046875 60.210938 62.046875 L 57.949219 62.046875 L 57.949219 56.84375 C 58.28125 56.839844 58.65625 56.839844 58.921875 56.839844 C 59.675781 56.839844 60.324219 56.644531 60.898438 56.472656 C 61.375 56.332031 61.785156 56.207031 62.183594 56.207031 C 62.3125 56.207031 62.433594 56.222656 62.535156 56.242188 L 66.550781 57.230469 C 67.140625 57.410156 67.195312 57.851562 67.171875 58.097656 C 67.140625 58.441406 66.914062 58.816406 66.585938 58.859375 C 66.523438 58.863281 66.460938 58.863281 66.40625 58.863281 L 62.757812 58.476562 C 62.359375 58.429688 62.003906 58.722656 61.960938 59.121094 C 61.957031 59.144531 61.957031 59.171875 61.957031 59.199219 C 61.957031 59.5625 62.230469 59.878906 62.605469 59.917969 L 66.292969 60.3125 C 66.304688 60.316406 66.316406 60.316406 66.332031 60.316406 C 66.464844 60.324219 66.613281 60.316406 66.667969 60.308594 C 67.097656 60.28125 67.613281 60.210938 68.003906 60.121094 L 73.277344 58.503906 C 73.394531 58.46875 73.507812 58.453125 73.613281 58.453125 C 74.058594 58.453125 74.289062 58.746094 74.351562 58.996094 C 74.394531 59.167969 74.433594 59.59375 73.882812 59.898438 Z M 55.03125 62.589844 C 55.226562 62.589844 55.410156 62.511719 55.546875 62.375 C 55.679688 62.238281 55.757812 62.050781 55.757812 61.863281 C 55.757812 61.671875 55.679688 61.484375 55.546875 61.347656 C 55.273438 61.078125 54.789062 61.078125 54.519531 61.347656 C 54.382812 61.484375 54.304688 61.671875 54.304688 61.863281 C 54.304688 62.050781 54.382812 62.238281 54.519531 62.375 C 54.65625 62.511719 54.84375 62.589844 55.03125 62.589844 Z M 67.753906 51.992188 C 67.753906 53.480469 68.964844 54.695312 70.457031 54.695312 C 71.945312 54.695312 73.15625 53.480469 73.15625 51.992188 C 73.15625 50.503906 71.945312 49.289062 70.457031 49.289062 C 68.964844 49.289062 67.753906 50.503906 67.753906 51.992188 Z M 71.703125 51.992188 C 71.703125 52.683594 71.144531 53.242188 70.457031 53.242188 C 69.765625 53.242188 69.207031 52.683594 69.207031 51.992188 C 69.207031 51.304688 69.765625 50.742188 70.457031 50.742188 C 71.144531 50.742188 71.703125 51.304688 71.703125 51.992188 Z M 62.925781 52.3125 C 64.414062 52.3125 65.625 51.101562 65.625 49.613281 C 65.625 48.121094 64.414062 46.910156 62.925781 46.910156 C 61.433594 46.910156 60.222656 48.121094 60.222656 49.613281 C 60.222656 51.101562 61.433594 52.3125 62.925781 52.3125 Z M 62.925781 48.363281 C 63.613281 48.363281 64.171875 48.921875 64.171875 49.613281 C 64.171875 50.300781 63.613281 50.863281 62.925781 50.863281 C 62.234375 50.863281 61.675781 50.300781 61.675781 49.613281 C 61.675781 48.921875 62.234375 48.363281 62.925781 48.363281 Z M 68.304688 47.554688 C 69.792969 47.554688 71.007812 46.34375 71.007812 44.855469 C 71.007812 43.363281 69.792969 42.152344 68.304688 42.152344 C 66.816406 42.152344 65.601562 43.363281 65.601562 44.855469 C 65.601562 46.34375 66.816406 47.554688 68.304688 47.554688 Z M 68.304688 43.605469 C 68.992188 43.605469 69.554688 44.164062 69.554688 44.855469 C 69.554688 45.542969 68.992188 46.105469 68.304688 46.105469 C 67.617188 46.105469 67.054688 45.542969 67.054688 44.855469 C 67.054688 44.164062 67.617188 43.605469 68.304688 43.605469 Z M 68.304688 43.605469 "/>
</g>
</g>
</svg>
