<svg xmlns="http://www.w3.org/2000/svg" version="1.1" xmlns:xlink="http://www.w3.org/1999/xlink" xmlns:svgjs="http://svgjs.dev/svgjs" width="1500" height="1500" viewBox="0 0 1500 1500"><rect width="1500" height="1500" fill="#ffffff"></rect><g transform="matrix(0.6666666666666666,0,0,0.6666666666666666,249.78425655976667,249.78425655976673)"><svg viewBox="0 0 343 343" data-background-color="#f9f9f9" preserveAspectRatio="xMidYMid meet" height="1500" width="1500" xmlns="http://www.w3.org/2000/svg" xmlns:xlink="http://www.w3.org/1999/xlink"><g id="tight-bounds" transform="matrix(1,0,0,1,0.0740000000000407,0.07400000000001228)"><svg viewBox="0 0 342.85155851775386 342.85155851775386" height="342.85155851775386" width="342.85155851775386"><g><svg></svg></g><g><svg viewBox="0 0 342.85155851775386 342.85155851775386" height="342.85155851775386" width="342.85155851775386"><g><path d="M0 171.426c0-94.676 76.75-171.426 171.426-171.426 94.676 0 171.426 76.75 171.426 171.426 0 94.676-76.75 171.426-171.426 171.426-94.676 0-171.426-76.75-171.426-171.426zM171.426 338.823c92.451 0 167.398-74.946 167.397-167.397 0-92.451-74.946-167.398-167.397-167.398-92.451 0-167.398 74.946-167.398 167.398 0 92.451 74.946 167.398 167.398 167.397z" data-fill-palette-color="tertiary" fill="#000000" stroke="transparent"></path><ellipse rx="164.56874808852186" ry="164.56874808852186" cx="171.42577925887693" cy="171.42577925887693" fill="#000000" stroke="transparent" stroke-width="0" fill-opacity="1" data-fill-palette-color="tertiary"></ellipse></g><g transform="matrix(1,0,0,1,64.84655864529837,112.95396726302289)"><svg viewBox="0 0 213.1584412271571 116.9436239917081" height="116.9436239917081" width="213.1584412271571"><g><svg viewBox="0 0 213.1584412271571 116.9436239917081" height="116.9436239917081" width="213.1584412271571"><g><svg viewBox="0 0 213.1584412271571 116.9436239917081" height="116.9436239917081" width="213.1584412271571"><g transform="matrix(1,0,0,1,0,72.27585117239036)"><svg viewBox="0 0 213.1584412271571 44.66777281931773" height="44.66777281931773" width="213.1584412271571"><g id="textblocktransform"><svg viewBox="0 0 213.1584412271571 44.66777281931773" height="44.66777281931773" width="213.1584412271571" id="textblock"><g><svg viewBox="0 0 213.1584412271571 44.66777281931773" height="44.66777281931773" width="213.1584412271571"><g transform="matrix(1,0,0,1,0,0)"><svg width="213.1584412271571" viewBox="4.13 -36.04 222.85 46.71" height="44.66777281931773" data-palette-color="#f9f9f9"><path d="M17.26-13.94L7.79-13.94 7.79-17.75 17.26-17.75Q20.02-17.75 21.72-18.64 23.41-19.53 24.21-21.09 25-22.66 25-24.66L25-24.66Q25-26.49 24.21-28.1 23.41-29.71 21.72-30.71 20.02-31.71 17.26-31.71L17.26-31.71 8.86-31.71 8.86 0 4.13 0 4.13-35.55 17.26-35.55Q21.29-35.55 24.07-34.16 26.86-32.76 28.3-30.32 29.74-27.88 29.74-24.71L29.74-24.71Q29.74-21.29 28.3-18.87 26.86-16.46 24.07-15.2 21.29-13.94 17.26-13.94L17.26-13.94ZM39.55-22.27L39.55 0 34.98 0 34.98-26.42 39.43-26.42 39.55-22.27ZM47.78-26.56L47.78-22.39Q47.19-22.51 46.69-22.55 46.19-22.58 45.55-22.58L45.55-22.58Q43.48-22.58 42.05-21.73 40.62-20.87 39.84-19.37 39.06-17.87 38.86-15.94L38.86-15.94 37.57-15.21Q37.57-18.41 38.43-21.06 39.28-23.71 41.1-25.31 42.92-26.9 45.77-26.9L45.77-26.9Q46.24-26.9 46.88-26.79 47.53-26.68 47.78-26.56L47.78-26.56ZM56.88-26.42L56.88 0 52.31 0 52.31-26.42 56.88-26.42ZM51.97-33.45L51.97-33.45Q51.97-34.52 52.64-35.28 53.32-36.04 54.63-36.04L54.63-36.04Q55.95-36.04 56.65-35.28 57.34-34.52 57.34-33.45L57.34-33.45Q57.34-32.4 56.65-31.65 55.95-30.91 54.63-30.91L54.63-30.91Q53.32-30.91 52.64-31.65 51.97-32.4 51.97-33.45ZM68.62-21.17L68.62 0 64.06 0 64.06-26.42 68.38-26.42 68.62-21.17ZM67.69-14.23L65.57-14.31Q65.59-17.92 66.8-20.76 68.01-23.61 70.39-25.26 72.77-26.9 76.31-26.9L76.31-26.9Q80.02-26.9 82.44-24.73 84.86-22.56 84.86-17.6L84.86-17.6 84.86 0 80.29 0 80.29-17.38Q80.29-19.46 79.59-20.72 78.9-21.97 77.63-22.55 76.36-23.12 74.65-23.12L74.65-23.12Q72.67-23.12 71.34-22.41 70.01-21.7 69.21-20.46 68.4-19.21 68.05-17.61 67.69-16.02 67.69-14.23L67.69-14.23ZM84.81-16.72L81.76-15.8Q81.78-18.68 82.99-21.22 84.2-23.75 86.54-25.33 88.88-26.9 92.25-26.9L92.25-26.9Q95.09-26.9 97.06-25.9 99.04-24.9 100.07-22.8 101.09-20.7 101.09-17.36L101.09-17.36 101.09 0 96.53 0 96.53-17.41Q96.53-19.63 95.83-20.87 95.13-22.12 93.88-22.62 92.62-23.12 90.91-23.12L90.91-23.12Q89.42-23.12 88.29-22.61 87.15-22.09 86.38-21.2 85.61-20.31 85.21-19.17 84.81-18.02 84.81-16.72L84.81-16.72ZM106.73-12.92L106.73-13.48Q106.73-17.31 108.19-20.34 109.66-23.36 112.34-25.13 115.03-26.9 118.72-26.9L118.72-26.9Q122.45-26.9 125.16-25.13 127.87-23.36 129.32-20.34 130.78-17.31 130.78-13.48L130.78-13.48 130.78-12.92Q130.78-9.11 129.32-6.07 127.87-3.03 125.17-1.27 122.48 0.49 118.76 0.49L118.76 0.49Q115.05 0.49 112.36-1.27 109.66-3.03 108.19-6.07 106.73-9.11 106.73-12.92L106.73-12.92ZM111.29-13.48L111.29-12.92Q111.29-10.3 112.12-8.08 112.95-5.86 114.6-4.52 116.25-3.17 118.76-3.17L118.76-3.17Q121.25-3.17 122.9-4.52 124.55-5.86 125.38-8.08 126.21-10.3 126.21-12.92L126.21-12.92 126.21-13.48Q126.21-16.09 125.38-18.31 124.55-20.53 122.89-21.89 121.23-23.24 118.72-23.24L118.72-23.24Q116.25-23.24 114.59-21.89 112.93-20.53 112.11-18.31 111.29-16.09 111.29-13.48L111.29-13.48ZM162.68-13.94L153.21-13.94 153.21-17.75 162.68-17.75Q165.44-17.75 167.14-18.64 168.83-19.53 169.63-21.09 170.42-22.66 170.42-24.66L170.42-24.66Q170.42-26.49 169.63-28.1 168.83-29.71 167.14-30.71 165.44-31.71 162.68-31.71L162.68-31.71 154.28-31.71 154.28 0 149.55 0 149.55-35.55 162.68-35.55Q166.71-35.55 169.49-34.16 172.28-32.76 173.72-30.32 175.16-27.88 175.16-24.71L175.16-24.71Q175.16-21.29 173.72-18.87 172.28-16.46 169.49-15.2 166.71-13.94 162.68-13.94L162.68-13.94ZM195.71-4.52L195.71-18.12Q195.71-20.48 194.31-21.89 192.9-23.29 190.17-23.29L190.17-23.29Q188.48-23.29 187.2-22.71 185.92-22.12 185.21-21.17 184.5-20.21 184.5-19.09L184.5-19.09 179.94-19.09Q179.94-21 181.23-22.79 182.53-24.58 184.88-25.74 187.24-26.9 190.44-26.9L190.44-26.9Q193.32-26.9 195.54-25.93 197.76-24.95 199.02-22.99 200.28-21.02 200.28-18.07L200.28-18.07 200.28-5.76Q200.28-4.44 200.51-2.95 200.74-1.46 201.2-0.39L201.2-0.39 201.2 0 196.44 0Q196.1-0.78 195.91-2.09 195.71-3.39 195.71-4.52L195.71-4.52ZM196.49-16.02L196.54-12.84 192-12.84Q188.14-12.84 186.04-11.62 183.94-10.4 183.94-7.96L183.94-7.96Q183.94-6.05 185.22-4.74 186.51-3.42 188.97-3.42L188.97-3.42Q191.05-3.42 192.63-4.3 194.22-5.18 195.15-6.47 196.08-7.76 196.15-8.96L196.15-8.96 198.1-6.79Q197.93-5.76 197.17-4.52 196.42-3.27 195.16-2.14 193.9-1 192.18-0.26 190.46 0.49 188.31 0.49L188.31 0.49Q185.63 0.49 183.61-0.55 181.6-1.59 180.49-3.37 179.38-5.15 179.38-7.32L179.38-7.32Q179.38-11.6 182.6-13.81 185.82-16.02 191.27-16.02L191.27-16.02 196.49-16.02ZM214.77-2.73L222.12-26.42 226.98-26.42 216.39 4.08Q216.02 5.05 215.42 6.19 214.82 7.32 213.91 8.35 212.99 9.38 211.67 10.02 210.36 10.67 208.55 10.67L208.55 10.67Q208.18 10.67 207.67 10.6 207.16 10.52 206.69 10.44 206.23 10.35 205.99 10.28L205.99 10.28 205.99 6.64Q206.18 6.67 206.61 6.71 207.04 6.76 207.21 6.76L207.21 6.76Q209.5 6.76 210.8 5.81 212.09 4.86 212.9 2.42L212.9 2.42 214.77-2.73ZM209.45-26.42L216.26-5.88 217.44-1.12 214.16 0.51 204.47-26.42 209.45-26.42Z" opacity="1" transform="matrix(1,0,0,1,0,0)" fill="#ffffff" class="wordmark-text-0" data-fill-palette-color="quaternary" id="text-0"></path></svg></g></svg></g></svg></g></svg></g><g transform="matrix(1,0,0,1,74.80849797435886,0)"><svg viewBox="0 0 63.541445278439404 61.73086203629711" height="61.73086203629711" width="63.541445278439404"><g><svg xmlns="http://www.w3.org/2000/svg" xmlns:xlink="http://www.w3.org/1999/xlink" version="1.1" x="0" y="0" viewBox="25.51 26.206999999999997 48.981710529846865 47.58600000000001" enable-background="new 0 0 100 100" xml:space="preserve" height="61.73086203629711" width="63.541445278439404" class="icon-icon-0" data-fill-palette-color="quaternary" id="icon-0"><path d="M74.351 60.264c-0.516-2.022-2.298-3.381-4.434-3.381-0.494 0-1.002 0.072-1.541 0.225l-8.83 2.708c0.022-0.134 0.04-0.269 0.052-0.406 0.203-2.296-1.126-4.229-3.47-4.946l-8.419-2.069c-0.453-0.099-0.924-0.149-1.4-0.149-1.262 0-2.407 0.343-3.516 0.674-1.082 0.323-2.105 0.629-3.225 0.629-0.55 0-1.323 0.003-2.008 0.006V51.99c0-0.828-0.671-1.5-1.5-1.5H27.01c-0.828 0-1.5 0.672-1.5 1.5v20.303c0 0.828 0.672 1.5 1.5 1.5h9.051c0.829 0 1.5-0.672 1.5-1.5v-1.988h4.669c0.648 0 1.801 0.188 2.427 0.398l7.754 2.542c0.428 0.143 0.913 0.215 1.443 0.215 0.884 0 1.761-0.203 2.42-0.561l15.555-7.364C73.891 64.411 74.88 62.342 74.351 60.264zM34.561 70.793H28.51V53.49h6.051V70.793zM70.469 62.863l-15.521 7.345c-0.033 0.015-0.064 0.032-0.097 0.05-0.173 0.098-0.559 0.202-0.998 0.202-0.288 0-0.449-0.046-0.5-0.063L45.6 67.855c-0.936-0.314-2.385-0.551-3.37-0.551h-4.669V56.553c0.683-0.003 1.459-0.006 2.008-0.006 1.558 0 2.899-0.4 4.084-0.755 0.983-0.294 1.833-0.548 2.656-0.548 0.265 0 0.514 0.026 0.723 0.072l8.298 2.037c1.219 0.375 1.325 1.283 1.28 1.791-0.063 0.715-0.533 1.487-1.212 1.573-0.131 0.008-0.255 0.013-0.369 0.014l-7.536-0.805c-0.824-0.094-1.562 0.508-1.65 1.332-0.006 0.054-0.008 0.107-0.008 0.16-0.001 0.757 0.57 1.408 1.34 1.49l7.62 0.814c0.025 0.003 0.052 0.005 0.077 0.007 0.277 0.012 0.582 0.001 0.698-0.018 0.885-0.051 1.954-0.196 2.756-0.389l10.898-3.339c0.242-0.068 0.476-0.103 0.693-0.103 0.915 0 1.395 0.604 1.526 1.122C71.532 61.354 71.608 62.238 70.469 62.863zM31.533 68.421c0.4 0 0.78-0.16 1.061-0.439 0.279-0.28 0.439-0.67 0.439-1.061 0-0.39-0.16-0.78-0.439-1.06-0.561-0.561-1.561-0.561-2.121 0-0.279 0.279-0.439 0.67-0.439 1.06 0 0.391 0.16 0.78 0.439 1.061C30.754 68.261 31.143 68.421 31.533 68.421zM57.811 46.535c0 3.077 2.504 5.581 5.582 5.581 3.077 0 5.581-2.504 5.581-5.581 0-3.078-2.504-5.582-5.581-5.582C60.314 40.953 57.811 43.457 57.811 46.535zM65.974 46.535c0 1.423-1.158 2.581-2.581 2.581-1.424 0-2.582-1.158-2.582-2.581 0-1.424 1.158-2.582 2.582-2.582C64.815 43.953 65.974 45.111 65.974 46.535zM47.836 47.199c3.078 0 5.581-2.504 5.581-5.582 0-3.077-2.503-5.581-5.581-5.581-3.077 0-5.581 2.504-5.581 5.581C42.255 44.695 44.759 47.199 47.836 47.199zM47.836 39.036c1.424 0 2.581 1.158 2.581 2.581 0 1.424-1.157 2.582-2.581 2.582-1.423 0-2.581-1.158-2.581-2.582C45.255 40.194 46.413 39.036 47.836 39.036zM58.951 37.37c3.076 0 5.579-2.504 5.579-5.581 0-3.078-2.503-5.582-5.579-5.582-3.078 0-5.582 2.504-5.582 5.582C53.369 34.866 55.873 37.37 58.951 37.37zM58.951 29.207c1.422 0 2.579 1.158 2.579 2.582 0 1.423-1.157 2.581-2.579 2.581-1.424 0-2.582-1.158-2.582-2.581C56.369 30.365 57.527 29.207 58.951 29.207z" fill="#ffffff" data-fill-palette-color="quaternary"></path></svg></g></svg></g><g></g></svg></g></svg></g></svg></g></svg></g><defs></defs></svg><rect width="342.85155851775386" height="342.85155851775386" fill="none" stroke="none" visibility="hidden"></rect></g></svg></g></svg>